<?xml version="1.0" encoding="UTF-8"?>
<svg xmlns="http://www.w3.org/2000/svg" xmlns:xlink="http://www.w3.org/1999/xlink" width="135pt" height="396pt" viewBox="0 0 135 396" version="1.1">
<g id="surface1">
<path style=" stroke:none;fill-rule:nonzero;fill:rgb(0%,0%,0%);fill-opacity:1;" d="M 74.0625 268.285156 C 74.0625 268.285156 43.101562 259.308594 41.105469 242.355469 C 39.105469 225.402344 56.082031 208.449219 64.074219 205.460938 C 72.066406 202.46875 106.664062 201.285156 116.007812 232.382812 C 125 262.300781 104.027344 282.246094 86.046875 289.226562 C 68.070312 296.207031 20.132812 289.226562 11.140625 244.351562 C 2.152344 199.476562 85.046875 144.628906 86.046875 102.746094 C 87.046875 60.863281 63.074219 5.019531 63.074219 5.019531 L 48.097656 0.0351562 C 48.097656 0.0351562 25.121094 25.960938 27.121094 71.832031 C 29.117188 117.703125 94.039062 309.167969 96.035156 328.117188 C 98.03125 347.0625 85.046875 365.011719 75.0625 371.992188 C 65.074219 378.972656 57.082031 391.925781 39.105469 378.972656 C 48.796875 379.777344 68.757812 392.867188 69.070312 356.039062 C 69.070312 344.070312 59.082031 326.121094 43.101562 326.121094 C 27.121094 326.121094 8.144531 352.050781 7.144531 368.003906 C 6.148438 383.960938 29.117188 396.917969 51.089844 395.941406 C 73.066406 394.929688 107.019531 354.042969 103.027344 327.121094 C 99.03125 300.195312 33.113281 107.734375 38.109375 73.828125 C 43.101562 39.921875 58.082031 31.945312 58.082031 31.945312 C 58.082031 31.945312 73.066406 58.867188 72.066406 71.832031 C 71.066406 84.792969 -3.839844 188.507812 0.152344 230.390625 C 4.148438 272.273438 16.136719 303.1875 69.070312 298.199219 C 122.003906 293.214844 141.777344 255.339844 132.988281 232.382812 C 118.769531 195.257812 91.632812 191.203125 69.070312 195.488281 C 45.015625 200.054688 18.132812 235.375 27.121094 253.324219 C 36.109375 271.277344 76.0625 270.277344 74.0625 268.285156 Z M 74.0625 268.285156 "/>
</g>
</svg>
