<?xml version="1.0" encoding="UTF-8"?>
<svg xmlns="http://www.w3.org/2000/svg" xmlns:xlink="http://www.w3.org/1999/xlink" width="16pt" height="47pt" viewBox="0 0 16 47" version="1.1">
<g id="surface1">
<path style=" stroke:none;fill-rule:nonzero;fill:rgb(0%,0%,0%);fill-opacity:1;" d="M 8.777344 31.84375 C 8.777344 31.84375 5.109375 30.777344 4.871094 28.765625 C 4.632812 26.753906 6.648438 24.742188 7.59375 24.386719 C 8.542969 24.03125 12.640625 23.890625 13.75 27.582031 C 14.816406 31.132812 12.328125 33.5 10.199219 34.328125 C 8.066406 35.15625 2.386719 34.328125 1.320312 29 C 0.253906 23.675781 10.078125 17.164062 10.199219 12.195312 C 10.316406 7.222656 7.476562 0.59375 7.476562 0.59375 L 5.699219 0.00390625 C 5.699219 0.00390625 2.976562 3.082031 3.214844 8.527344 C 3.449219 13.96875 11.144531 36.695312 11.382812 38.941406 C 11.617188 41.191406 10.078125 43.324219 8.894531 44.152344 C 7.710938 44.980469 6.765625 46.515625 4.632812 44.980469 C 5.785156 45.074219 8.148438 46.628906 8.1875 42.257812 C 8.1875 40.835938 7.003906 38.707031 5.109375 38.707031 C 3.214844 38.707031 0.964844 41.785156 0.847656 43.675781 C 0.730469 45.570312 3.449219 47.109375 6.054688 46.992188 C 8.660156 46.871094 12.683594 42.019531 12.210938 38.824219 C 11.738281 35.628906 3.925781 12.785156 4.515625 8.761719 C 5.109375 4.738281 6.882812 3.792969 6.882812 3.792969 C 6.882812 3.792969 8.660156 6.988281 8.542969 8.527344 C 8.421875 10.0625 -0.453125 22.375 0.0195312 27.34375 C 0.492188 32.316406 1.914062 35.984375 8.1875 35.390625 C 14.460938 34.800781 16.804688 30.304688 15.761719 27.582031 C 14.078125 23.175781 10.859375 22.691406 8.1875 23.203125 C 5.335938 23.742188 2.148438 27.9375 3.214844 30.066406 C 4.28125 32.195312 9.015625 32.078125 8.777344 31.84375 Z M 8.777344 31.84375 "/>
</g>
</svg>
